<svg width="15" height="15" viewBox="0 0 15 15" fill="none" xmlns="http://www.w3.org/2000/svg">
<g clip-path="url(#clip0_38_51)">
<path d="M4.18771 8.89557L12.5269 14.6316C12.8695 14.8678 13.2259 14.9925 13.531 14.9925C14.2009 14.9925 14.645 14.4306 14.645 13.5265L14.645 1.46574C14.645 1.02406 14.5166 0.655043 14.3262 0.398176C14.1329 0.137785 13.8304 -4.47663e-06 13.5037 -4.47663e-06C13.1987 -4.47663e-06 12.8564 0.124905 12.5139 0.360751L4.18224 6.09676C3.64663 6.4659 3.35295 6.96275 3.35307 7.49641C3.35307 8.02983 3.65137 8.52667 4.18771 8.89557Z" fill="#BABABA"/>
<path d="M1.13442 0.00376239L1.14343 0.00387573C1.14491 0.00387573 1.14635 0.00376239 1.14783 0.00376239L1.13442 0.00376239Z" fill="#BABABA"/>
<path d="M1.15912 15L1.50384 14.999C1.95524 14.999 2.34601 14.6311 2.34601 14.1791L2.34601 0.83245C2.34601 0.379955 1.96168 0.00850674 1.50967 0.00850674L1.14348 0.0038892C0.693747 0.00628898 0.354984 0.380928 0.354984 0.831721L0.354984 14.1799C0.354984 14.632 0.707356 15 1.15912 15Z" fill="#BABABA"/>
</g>
<defs>
<clipPath id="clip0_38_51">
<rect width="15" height="15" fill="white" transform="translate(15 15) rotate(-180)"/>
</clipPath>
</defs>
</svg>
