<svg width="71" height="74" viewBox="0 0 71 74" fill="none" xmlns="http://www.w3.org/2000/svg">
<path d="M39.0492 1.39371C37.9878 0.493888 36.6415 0 35.25 0C33.8585 0 32.5122 0.493888 31.4508 1.39371L2.07583 26.3155C1.42537 26.8669 0.90276 27.5534 0.54429 28.3271C0.185821 29.1009 9.04416e-05 29.9434 0 30.7961V67.6245C0 69.1827 0.618972 70.677 1.72075 71.7788C2.82252 72.8806 4.31685 73.4995 5.875 73.4995H24.4792C25.2582 73.4995 26.0054 73.1901 26.5563 72.6392C27.1072 72.0883 27.4167 71.3411 27.4167 70.562V46.0829H43.0833V70.562C43.0833 72.1835 44.3993 73.4995 46.0208 73.4995H64.625C66.1831 73.4995 67.6775 72.8806 68.7793 71.7788C69.881 70.677 70.5 69.1827 70.5 67.6245V30.7961C70.4999 29.9434 70.3142 29.1009 69.9557 28.3271C69.5972 27.5534 69.0746 26.8669 68.4242 26.3155L39.0492 1.39371V1.39371Z" fill="#9C9C9D"/>
</svg>
