<svg width="20" height="20" viewBox="0 0 20 20" fill="none" xmlns="http://www.w3.org/2000/svg">
<path fill-rule="evenodd" clip-rule="evenodd" d="M5.42299 0.833333L6.10087 0H8.81236L9.49024 0.833333V19.1667L8.81236 20H6.10087L5.42299 19.1667V0.833333ZM6.77874 1.66667V18.3333H8.13449V1.66667H6.77874ZM11.0778 2.24167L11.4832 1.17333L14.032 0.0333333L14.8997 0.531667L20 17.7583L19.5946 18.8267L17.0472 19.9667L16.1795 19.4683L11.0765 2.24167H11.0778ZM12.5827 2.455L17.2194 18.115L18.4938 17.5467L13.8571 1.885L12.5827 2.455V2.455ZM0 0.833333L0.677874 0H3.38937L4.06725 0.833333V19.1667L3.38937 20H0.677874L0 19.1667V0.833333ZM1.35575 1.66667V18.3333H2.7115V1.66667H1.35575Z" fill="#9C9C9D"/>
</svg>
