<svg width="141" height="45" viewBox="0 0 141 45" fill="none" xmlns="http://www.w3.org/2000/svg">
<path d="M63.328 14.2H66.256V31H63.328V23.464H56.368V31H53.44V14.2H56.368V20.536H63.328V14.2ZM74.2356 31.312C73.1316 31.312 72.1236 31.028 71.2116 30.46C70.3076 29.892 69.5836 29.128 69.0396 28.168C68.5036 27.208 68.2356 26.148 68.2356 24.988C68.2356 24.116 68.3916 23.3 68.7036 22.54C69.0156 21.772 69.4436 21.1 69.9876 20.524C70.5396 19.94 71.1796 19.484 71.9076 19.156C72.6356 18.828 73.4116 18.664 74.2356 18.664C75.1716 18.664 76.0276 18.864 76.8036 19.264C77.5876 19.656 78.2516 20.196 78.7956 20.884C79.3396 21.572 79.7356 22.356 79.9836 23.236C80.2316 24.116 80.2876 25.036 80.1516 25.996H71.3796C71.4916 26.444 71.6756 26.848 71.9316 27.208C72.1876 27.56 72.5116 27.844 72.9036 28.06C73.2956 28.268 73.7396 28.376 74.2356 28.384C74.7476 28.392 75.2116 28.272 75.6276 28.024C76.0516 27.768 76.4036 27.424 76.6836 26.992L79.6716 27.688C79.1836 28.752 78.4556 29.624 77.4876 30.304C76.5196 30.976 75.4356 31.312 74.2356 31.312ZM71.2836 23.8H77.1876C77.0996 23.32 76.9116 22.888 76.6236 22.504C76.3436 22.112 75.9956 21.8 75.5796 21.568C75.1636 21.336 74.7156 21.22 74.2356 21.22C73.7556 21.22 73.3116 21.336 72.9036 21.568C72.4956 21.792 72.1476 22.1 71.8596 22.492C71.5796 22.876 71.3876 23.312 71.2836 23.8ZM91.1989 19H94.1269V31H91.1989L91.0669 29.512C90.7389 30.048 90.3029 30.484 89.7589 30.82C89.2229 31.148 88.5869 31.312 87.8509 31.312C86.9629 31.312 86.1309 31.144 85.3549 30.808C84.5789 30.472 83.8949 30.008 83.3029 29.416C82.7189 28.824 82.2589 28.14 81.9229 27.364C81.5949 26.588 81.4309 25.756 81.4309 24.868C81.4309 24.012 81.5869 23.208 81.8989 22.456C82.2189 21.704 82.6629 21.044 83.2309 20.476C83.7989 19.908 84.4549 19.464 85.1989 19.144C85.9429 18.824 86.7429 18.664 87.5989 18.664C88.3909 18.664 89.0989 18.84 89.7229 19.192C90.3549 19.544 90.8909 19.992 91.3309 20.536L91.1989 19ZM87.7789 28.492C88.4029 28.492 88.9549 28.336 89.4349 28.024C89.9149 27.712 90.2909 27.292 90.5629 26.764C90.8349 26.228 90.9709 25.64 90.9709 25C90.9709 24.352 90.8349 23.764 90.5629 23.236C90.2909 22.7 89.9109 22.276 89.4229 21.964C88.9429 21.652 88.3949 21.496 87.7789 21.496C87.1629 21.496 86.5989 21.656 86.0869 21.976C85.5829 22.288 85.1789 22.708 84.8749 23.236C84.5789 23.764 84.4309 24.352 84.4309 25C84.4309 25.648 84.5829 26.236 84.8869 26.764C85.1909 27.292 85.5949 27.712 86.0989 28.024C86.6109 28.336 87.1709 28.492 87.7789 28.492ZM96.5301 31L96.5181 19H99.4461L99.4581 20.068C99.8661 19.636 100.354 19.296 100.922 19.048C101.49 18.792 102.102 18.664 102.758 18.664C103.198 18.664 103.638 18.728 104.078 18.856L102.926 21.808C102.622 21.688 102.318 21.628 102.014 21.628C101.542 21.628 101.11 21.744 100.718 21.976C100.334 22.2 100.026 22.508 99.7941 22.9C99.5701 23.284 99.4581 23.712 99.4581 24.184V31H96.5301ZM112.185 21.928H109.857V31H106.929V21.928H105.153V19H106.929V15.232H109.857V19H112.185V21.928ZM114.167 19H117.095V31H114.167V19ZM115.655 17.452C115.223 17.452 114.859 17.312 114.563 17.032C114.267 16.744 114.119 16.384 114.119 15.952C114.119 15.528 114.267 15.172 114.563 14.884C114.859 14.596 115.219 14.452 115.643 14.452C116.067 14.452 116.423 14.596 116.711 14.884C117.007 15.172 117.155 15.528 117.155 15.952C117.155 16.384 117.011 16.744 116.723 17.032C116.435 17.312 116.079 17.452 115.655 17.452ZM123.375 16.48V19H126.651V21.928H123.375V31H120.447V21.928H119.139V19H120.447V16.48C120.447 15.792 120.615 15.164 120.951 14.596C121.295 14.02 121.755 13.564 122.331 13.228C122.907 12.884 123.543 12.712 124.239 12.712C124.743 12.712 125.243 12.816 125.739 13.024C126.235 13.232 126.675 13.552 127.059 13.984L124.947 16.048C124.875 15.912 124.771 15.812 124.635 15.748C124.507 15.676 124.375 15.64 124.239 15.64C124.007 15.64 123.803 15.724 123.627 15.892C123.459 16.052 123.375 16.248 123.375 16.48ZM136.649 19H139.757L133.193 37H130.085L132.257 31L127.937 19H131.141L133.721 26.992L136.649 19Z" fill="white"/>
<circle cx="22.5" cy="22.5" r="22.5" fill="url(#paint0_linear_11_69)"/>
<path d="M15.6912 26.8392C13.9462 26.8392 12.5316 28.2268 12.5316 29.9386C12.5316 31.6503 13.9462 33.038 15.6912 33.038C17.4362 33.038 18.8509 31.6503 18.8509 29.9386V15.6813L32.7531 11.962V15.6813M32.7531 28.6988V20.6404M32.7531 28.6988C32.7531 30.4106 31.3385 31.7982 29.5935 31.7982C27.8485 31.7982 26.4339 30.4106 26.4339 28.6988C26.4339 26.9871 27.8485 25.5994 29.5935 25.5994C31.3385 25.5994 32.7531 26.9871 32.7531 28.6988Z" stroke="white" stroke-width="3" stroke-linecap="round" stroke-linejoin="round"/>
<defs>
<linearGradient id="paint0_linear_11_69" x1="35.0316" y1="4.41456" x2="10.8228" y2="42.4367" gradientUnits="userSpaceOnUse">
<stop stop-color="#10CA52"/>
<stop offset="1" stop-color="#27E069"/>
</linearGradient>
</defs>
</svg>
