<svg width="20" height="20" viewBox="0 0 20 20" fill="none" xmlns="http://www.w3.org/2000/svg">
<g clip-path="url(#clip0_38_26)">
<path d="M14.4164 8.13923L3.29749 0.491211C2.84062 0.176263 2.36545 0.0100403 1.95864 0.0100403C1.06548 0.0100403 0.473328 0.759175 0.473328 1.96469V18.0457C0.473328 18.6346 0.644572 19.1266 0.898442 19.4691C1.1562 19.8163 1.55944 20 1.99509 20C2.40174 20 2.85812 19.8335 3.31483 19.519L14.4237 11.871C15.1378 11.3788 15.5294 10.7163 15.5293 10.0048C15.5293 9.29355 15.1315 8.63109 14.4164 8.13923Z" fill="#BABABA"/>
<path d="M18.4883 19.9949L18.4757 19.9948C18.4737 19.9948 18.4716 19.9949 18.4696 19.9949H18.4883Z" fill="#BABABA"/>
<path d="M18.4545 0L17.9949 0.00129608C17.393 0.00129608 16.872 0.491863 16.872 1.09454V18.8901C16.872 19.4934 17.3844 19.9887 17.9871 19.9887L18.4754 19.9948C19.075 19.9916 19.5267 19.4921 19.5267 18.891V1.09341C19.5267 0.490729 19.0568 0 18.4545 0Z" fill="#BABABA"/>
</g>
<defs>
<clipPath id="clip0_38_26">
<rect width="20" height="20" fill="white"/>
</clipPath>
</defs>
</svg>
