<svg width="13" height="14" viewBox="0 0 13 14" fill="none" xmlns="http://www.w3.org/2000/svg">
<path d="M1.50171 14C1.25225 13.9996 1.0072 13.9383 0.790673 13.8223C0.303105 13.5636 0 13.0615 0 12.5163V1.48376C0 0.937074 0.303105 0.436424 0.790673 0.177729C1.01235 0.0584393 1.26419 -0.00290576 1.51985 0.000105775C1.77552 0.00311731 2.02562 0.0703751 2.24403 0.194849L12.3143 5.83895C12.5242 5.96217 12.6972 6.13328 12.8172 6.33623C12.9371 6.53918 13 6.76733 13 6.99927C13 7.23122 12.9371 7.45936 12.8172 7.66232C12.6972 7.86527 12.5242 8.03638 12.3143 8.15959L2.24241 13.8052C2.0189 13.9317 1.76289 13.9991 1.50171 14V14Z" fill="white"/>
</svg>
