<svg width="28" height="28" viewBox="0 0 28 28" fill="none" xmlns="http://www.w3.org/2000/svg">
<path fill-rule="evenodd" clip-rule="evenodd" d="M13.7117 4.73972C13.6835 4.5659 13.4671 4.47296 13.3137 4.62495L10.0842 7.826C9.0073 8.89337 7.54604 9.49312 6.02227 9.49312C5.76985 9.49312 5.56522 9.69572 5.56522 9.94564V14.0544C5.56522 14.3043 5.76985 14.5069 6.02227 14.5069C7.54604 14.5069 9.0073 15.1066 10.0842 16.174L13.3137 19.3751C13.4671 19.527 13.6835 19.4341 13.7117 19.2603C14.0244 17.3313 14.4348 14.3455 14.4348 12C14.4348 9.65454 14.0244 6.66871 13.7117 4.73972ZM12.2064 3.52973C13.235 2.51017 15.0202 3.03295 15.2571 4.4941C15.5715 6.43286 16 9.52248 16 12C16 14.4775 15.5715 17.5671 15.2571 19.5059C15.0202 20.967 13.235 21.4898 12.2064 20.4703L8.9768 17.2692C8.1935 16.4928 7.13062 16.0566 6.02227 16.0566C4.9054 16.0566 4 15.1602 4 14.0544V9.94564C4 8.83984 4.9054 7.94341 6.02227 7.94341C7.13062 7.94341 8.1935 7.50717 8.9768 6.73079L12.2064 3.52973Z" fill="#BABABA"/>
<path d="M17 9C18.2806 9.79573 19 10.8748 19 12C19 13.1252 18.2806 14.2043 17 15" stroke="#BABABA" stroke-linecap="round" stroke-linejoin="round"/>
<path d="M18 7C19.9209 8.32622 21 10.1247 21 12C21 13.8753 19.9209 15.6738 18 17" stroke="#BABABA" stroke-linecap="round" stroke-linejoin="round"/>
</svg>
