<svg width="15" height="15" viewBox="0 0 15 15" fill="none" xmlns="http://www.w3.org/2000/svg">
<path d="M14.9752 4.47285C14.7563 1.88086 13.0505 0.000310284 10.9157 0.000310284C9.49351 0.000310284 8.19132 0.823456 7.45858 2.14272C6.73247 0.806392 5.48364 0 4.08423 0C1.94977 0 0.243697 1.88055 0.0250295 4.47254C0.00772067 4.58703 -0.0632454 5.18957 0.152538 6.1722C0.463519 7.58951 1.18183 8.87868 2.2293 9.89947L7.45512 15L12.7706 9.89978C13.8181 8.87868 14.5364 7.58982 14.8474 6.1722C15.0632 5.18988 14.9922 4.58734 14.9752 4.47285ZM4.61532 2.50636C3.34284 2.50636 2.30748 3.61992 2.30748 4.98852C2.30748 5.1601 2.17853 5.29879 2.019 5.29879C1.85947 5.29879 1.73052 5.1601 1.73052 4.98852C1.73052 3.27769 3.02464 1.88582 4.61532 1.88582C4.77485 1.88582 4.9038 2.02451 4.9038 2.19609C4.9038 2.36767 4.77456 2.50636 4.61532 2.50636Z" fill="white"/>
</svg>
