<svg width="14" height="16" viewBox="0 0 14 16" fill="none" xmlns="http://www.w3.org/2000/svg">
<path d="M1.61723 16C1.34857 15.9995 1.08468 15.9295 0.851494 15.797C0.32642 15.5013 0 14.9274 0 14.3044V1.69572C0 1.07094 0.32642 0.49877 0.851494 0.203119C1.09023 0.0667878 1.36143 -0.00332087 1.63677 0.000120885C1.9121 0.00356264 2.18144 0.0804287 2.41665 0.222685L13.2616 6.67309C13.4876 6.81391 13.6739 7.00946 13.8031 7.24141C13.9322 7.47335 14 7.73409 14 7.99917C14 8.26425 13.9322 8.52499 13.8031 8.75693C13.6739 8.98888 13.4876 9.18443 13.2616 9.32525L2.4149 15.7774C2.17419 15.922 1.8985 15.9989 1.61723 16V16Z" fill="black"/>
</svg>
