<svg width="24" height="24" viewBox="0 0 24 24" fill="none" xmlns="http://www.w3.org/2000/svg">
<path fill-rule="evenodd" clip-rule="evenodd" d="M13.7117 4.73972C13.6835 4.5659 13.4671 4.47296 13.3137 4.62495L10.0842 7.826C9.0073 8.89337 7.54604 9.49312 6.02227 9.49312C5.76985 9.49312 5.56522 9.69572 5.56522 9.94564V14.0544C5.56522 14.3043 5.76985 14.5069 6.02227 14.5069C7.54604 14.5069 9.0073 15.1066 10.0842 16.174L13.3137 19.3751C13.4671 19.527 13.6835 19.4341 13.7117 19.2603C14.0244 17.3313 14.4348 14.3455 14.4348 12C14.4348 10.3176 14.2236 8.30568 13.9888 6.59068C13.8963 5.9148 13.8001 5.28503 13.7117 4.73972ZM12.2064 3.52973C13.235 2.51017 15.0202 3.03295 15.2571 4.4941C15.5715 6.43286 16 9.52248 16 12C16 14.4775 15.5715 17.5671 15.2571 19.5059C15.0202 20.967 13.235 21.4898 12.2064 20.4703L8.9768 17.2692C8.1935 16.4928 7.13062 16.0566 6.02227 16.0566C4.9054 16.0566 4 15.1602 4 14.0544V9.94564C4 8.83984 4.9054 7.94341 6.02227 7.94341C7.13062 7.94341 8.1935 7.50717 8.9768 6.73079L12.2064 3.52973Z" fill="#BABABA"/>
<path fill-rule="evenodd" clip-rule="evenodd" d="M17.2375 14.6458C17.1063 14.5226 17.1014 14.318 17.2265 14.1889L22.0247 9.2339C22.1498 9.10472 22.3575 9.09986 22.4887 9.22305C22.6199 9.34624 22.6248 9.55082 22.4997 9.68L17.7015 14.635C17.5764 14.7641 17.3687 14.769 17.2375 14.6458Z" fill="#B3B3B3"/>
<path fill-rule="evenodd" clip-rule="evenodd" d="M22.6355 14.6458C22.7667 14.5226 22.7716 14.318 22.6465 14.1889L17.8483 9.2339C17.7232 9.10472 17.5155 9.09986 17.3843 9.22305C17.2531 9.34624 17.2482 9.55082 17.3733 9.68L22.1715 14.635C22.2966 14.7641 22.5044 14.769 22.6355 14.6458Z" fill="#B3B3B3"/>
</svg>
